<svg xmlns="http://www.w3.org/2000/svg" viewBox="0 0 900 1180" role="img" aria-labelledby="title desc">
  <title id="title">Hibiscus 植物排版</title>
  <desc id="desc">A botanical layout study with hibiscus flowers and editorial typography.</desc>
  <rect width="900" height="1180" fill="#f5f1e8"/>
  <rect x="58" y="54" width="784" height="1072" fill="#f8eadf" stroke="#2f5d50" stroke-width="4"/>
  <rect x="92" y="92" width="716" height="1004" fill="none" stroke="#e9b6c8" stroke-width="18" opacity=".75"/>
  <rect x="110" y="132" width="210" height="74" fill="#2f5d50"/>
  <text x="128" y="180" fill="#f5f1e8" font-family="Arial, sans-serif" font-size="22" font-weight="700" letter-spacing="4">BOTANICAL</text>

  <text x="450" y="318" text-anchor="middle" fill="#9e2a2b" font-family="Georgia, serif" font-size="116" font-weight="700" letter-spacing="8">HIBISCUS</text>
  <text x="450" y="370" text-anchor="middle" fill="#2f5d50" font-family="Arial, sans-serif" font-size="22" letter-spacing="10">COLOR / LAYOUT / HERITAGE</text>

  <g transform="translate(450 650)">
    <g fill="#e9b6c8" stroke="#9e2a2b" stroke-width="5">
      <path d="M0-48c58-126 150-64 86 26 122-36 154 74 36 96 92 74 8 158-76 62-30 116-148 82-106-42-122 24-138-102-28-104-70-94 38-154 88-38z"/>
      <path d="M-250 60c40-94 120-50 76 22 92-22 116 64 26 78 58 62-18 122-72 48-30 82-112 44-70-42-88 10-92-82-14-74-48-72 38-112 54-32z"/>
      <path d="M252 48c42-96 124-48 76 24 96-26 120 64 30 80 58 64-20 124-74 46-28 86-114 46-70-42-92 12-96-84-14-74-50-76 38-114 56-34z"/>
    </g>
    <g stroke="#2f5d50" stroke-width="8" stroke-linecap="round" fill="none">
      <path d="M-18 102c-60 100-100 190-126 300"/>
      <path d="M26 96c58 98 100 190 130 302"/>
      <path d="M-190 142c-42 92-72 168-90 244"/>
      <path d="M206 128c46 98 78 176 96 256"/>
    </g>
    <g fill="#c9a227">
      <circle cx="0" cy="16" r="18"/>
      <circle cx="-252" cy="118" r="12"/>
      <circle cx="254" cy="106" r="12"/>
    </g>
  </g>

  <g fill="#2f5d50" font-family="Arial, sans-serif" font-size="18" font-weight="700" letter-spacing="2">
    <text x="116" y="924">版心 / TITLE COLUMN</text>
    <text x="116" y="958">色彩 / PINK GREEN GOLD</text>
    <text x="116" y="992">用途 / POSTER CARD SYSTEM</text>
  </g>
  <rect x="602" y="884" width="52" height="124" fill="#e9b6c8"/>
  <rect x="666" y="884" width="52" height="124" fill="#2f5d50"/>
  <rect x="730" y="884" width="52" height="124" fill="#c9a227"/>
</svg>
