<svg xmlns="http://www.w3.org/2000/svg" viewBox="0 0 900 1260" role="img" aria-labelledby="title desc">
  <title id="title">旅人魔法海报</title>
  <desc id="desc">A heritage poster study with black, gold and ivory panels.</desc>
  <defs>
    <pattern id="grain" width="42" height="42" patternUnits="userSpaceOnUse">
      <path d="M3 7h1M19 11h1M33 5h1M11 31h1M36 34h1M24 25h1" stroke="#f5f1e8" stroke-opacity=".18"/>
    </pattern>
    <linearGradient id="gold" x1="0" x2="1" y1="0" y2="1">
      <stop offset="0" stop-color="#f0d37a"/>
      <stop offset=".58" stop-color="#c9a227"/>
      <stop offset="1" stop-color="#8d6c16"/>
    </linearGradient>
  </defs>
  <rect width="900" height="1260" fill="#1f1b18"/>
  <rect width="900" height="1260" fill="url(#grain)" opacity=".9"/>
  <rect x="58" y="58" width="784" height="1144" fill="none" stroke="url(#gold)" stroke-width="10"/>
  <rect x="86" y="86" width="728" height="1088" fill="none" stroke="#f5f1e8" stroke-opacity=".38" stroke-width="2"/>

  <g fill="none" stroke="#c9a227" stroke-width="4" opacity=".9">
    <rect x="120" y="172" width="170" height="138"/>
    <rect x="610" y="190" width="168" height="124"/>
    <rect x="114" y="802" width="166" height="128"/>
    <rect x="636" y="792" width="142" height="164"/>
  </g>
  <g fill="#f5f1e8" opacity=".78">
    <circle cx="178" cy="226" r="20"/>
    <path d="M158 270c34-52 80-52 108 0z"/>
    <path d="M652 270l42-52 48 52z"/>
    <circle cx="704" cy="230" r="18"/>
    <path d="M150 878h96M150 902h62M664 842h82M664 872h56M664 902h72"/>
  </g>

  <g transform="translate(450 594)">
    <path d="M-96 290c18-130 20-250 0-360h192c-20 110-18 230 0 360z" fill="#f5f1e8"/>
    <path d="M-112-44c34-86 190-86 224 0l-42 38H-70z" fill="#c9a227"/>
    <circle cx="0" cy="-82" r="82" fill="#f5f1e8"/>
    <path d="M-110-92c42-86 178-84 220 0-28-22-62-34-110-34s-82 12-110 34z" fill="#c9a227"/>
    <path d="M-58-70c30 22 86 22 116 0" stroke="#1f1b18" stroke-width="8" fill="none" stroke-linecap="round"/>
    <path d="M-150 250h300" stroke="#6b2d5c" stroke-width="12" stroke-linecap="round"/>
  </g>

  <text x="450" y="118" text-anchor="middle" fill="#c9a227" font-family="Georgia, serif" font-size="28" letter-spacing="8">VISUAL NODE</text>
  <text x="450" y="1098" text-anchor="middle" fill="#f5f1e8" font-family="Georgia, serif" font-size="92" font-weight="700" letter-spacing="6">旅人魔法</text>
  <text x="450" y="1148" text-anchor="middle" fill="#c9a227" font-family="Arial, sans-serif" font-size="20" letter-spacing="10">TIME / MEMORY / WORLD</text>
</svg>
